<svg xmlns="http://www.w3.org/2000/svg" viewBox="0 0 1200 800" role="img" aria-label="Logam bekas untuk daur ulang">
  <rect width="1200" height="800" fill="#edf2f4"/>
  <circle cx="1000" cy="155" r="190" fill="#d1dce2"/>
  <circle cx="170" cy="690" r="230" fill="#dde7ea"/>
  <g transform="translate(250 170)" stroke="#344956" stroke-width="14">
    <ellipse cx="180" cy="80" rx="130" ry="58" fill="#c8d3d8"/>
    <path d="M50 80v350c0 32 58 58 130 58s130-26 130-58V80" fill="#aebdc4"/>
    <ellipse cx="180" cy="430" rx="130" ry="58" fill="#8fa2ab"/>
    <path d="M430 120h250v120H430z" fill="#c8d3d8"/>
    <path d="M455 240h200l-35 250H490z" fill="#9aaeb8"/>
    <path d="M520 120v-55h70v55" fill="#5d717d"/>
  </g>
  <g fill="none" stroke="#2f6f54" stroke-width="22" stroke-linecap="round" stroke-linejoin="round">
    <path d="M785 455c50 55 132 65 194 20"/>
    <path d="M964 543l20-72-75-4"/>
  </g>
  <text x="310" y="660" fill="#2e424d" font-family="Arial, sans-serif" font-size="44" font-weight="700">Pisahkan logam sebelum setor</text>
</svg>
