<svg xmlns="http://www.w3.org/2000/svg" viewBox="0 0 1200 800" role="img" aria-label="Botol plastik siap dipilah">
  <rect width="1200" height="800" fill="#e9f5ee"/>
  <circle cx="1010" cy="120" r="170" fill="#c5e4d0"/>
  <circle cx="170" cy="700" r="220" fill="#d9efe1"/>
  <g transform="translate(290 120)">
    <rect x="70" y="105" width="150" height="470" rx="48" fill="#d7f1f3" stroke="#2f6f54" stroke-width="14"/>
    <rect x="104" y="28" width="82" height="88" rx="18" fill="#2f6f54"/>
    <rect x="82" y="235" width="126" height="155" rx="18" fill="#69b58a"/>
    <path d="M116 312c38-58 82-57 116 0-37 59-78 59-116 0Z" fill="#f5fbf7" opacity=".88"/>
    <rect x="300" y="150" width="150" height="420" rx="48" fill="#eaf7fa" stroke="#2f6f54" stroke-width="14"/>
    <rect x="334" y="72" width="82" height="88" rx="18" fill="#2f6f54"/>
    <rect x="313" y="290" width="124" height="110" rx="18" fill="#69b58a"/>
  </g>
  <g fill="none" stroke="#2f6f54" stroke-width="24" stroke-linecap="round" stroke-linejoin="round">
    <path d="M760 260c42-72 138-96 212-53"/>
    <path d="M949 187l28 70-74 10"/>
    <path d="M1000 492c-42 72-138 96-212 53"/>
    <path d="M811 565l-28-70 74-10"/>
  </g>
  <text x="760" y="395" fill="#1f513f" font-family="Arial, sans-serif" font-size="44" font-weight="700">Plastik bersih</text>
  <text x="760" y="448" fill="#376b55" font-family="Arial, sans-serif" font-size="28">lebih mudah diterima</text>
</svg>
